<svg xmlns="http://www.w3.org/2000/svg" width="1200" height="560" viewBox="0 0 1200 560" role="img" aria-label="AI Development Team delivery flow">
<rect width="1200" height="560" fill="#f7f8fb"/>
<text x="50" y="55" font-family="Arial" font-size="30" font-weight="700" fill="#17202a">AI Development Team Delivery Flow</text>
<text x="50" y="88" font-family="Arial" font-size="16" fill="#4b5563">Vendor Evidence Readiness SDK</text>
<g font-family="Arial" font-size="15" font-weight="700" fill="#17202a">
<rect x="50" y="140" width="150" height="78" rx="8" fill="#ffffff" stroke="#cbd5e1"/><text x="75" y="173">Product Owner</text><text x="95" y="195">Story</text>
<rect x="230" y="140" width="150" height="78" rx="8" fill="#ffffff" stroke="#cbd5e1"/><text x="258" y="173">AI Business</text><text x="277" y="195">Analyst</text>
<rect x="410" y="140" width="150" height="78" rx="8" fill="#ffffff" stroke="#cbd5e1"/><text x="446" y="173">Build</text><text x="446" y="195">Setup</text>
<rect x="590" y="140" width="150" height="78" rx="8" fill="#ffffff" stroke="#cbd5e1"/><text x="625" y="173">SDK</text><text x="611" y="195">Capability</text>
<rect x="770" y="140" width="150" height="78" rx="8" fill="#ffffff" stroke="#cbd5e1"/><text x="816" y="173">Tests</text><text x="806" y="195">Passed</text>
<rect x="950" y="140" width="180" height="78" rx="8" fill="#ffffff" stroke="#cbd5e1"/><text x="982" y="173">Review</text><text x="985" y="195">Package</text>
</g>
<g stroke="#64748b" stroke-width="3" marker-end="url(#arrow)"><defs><marker id="arrow" markerWidth="10" markerHeight="10" refX="8" refY="3" orient="auto"><path d="M0,0 L0,6 L9,3 z" fill="#64748b"/></marker></defs><line x1="200" y1="179" x2="228" y2="179"/><line x1="380" y1="179" x2="408" y2="179"/><line x1="560" y1="179" x2="588" y2="179"/><line x1="740" y1="179" x2="768" y2="179"/><line x1="920" y1="179" x2="948" y2="179"/></g>
<rect x="50" y="285" width="1080" height="210" rx="10" fill="#ffffff" stroke="#cbd5e1"/>
<text x="80" y="330" font-family="Arial" font-size="22" font-weight="700" fill="#991b1b">Status: Blocked - Missing Required Evidence</text>
<text x="80" y="365" font-family="Arial" font-size="17" fill="#17202a">Vendor: Acme Cloud Services</text>
<text x="80" y="400" font-family="Arial" font-size="16" fill="#166534">OK W-9</text>
<text x="260" y="400" font-family="Arial" font-size="16" fill="#991b1b">MISSING SOC 2 Type II Report</text>
<text x="540" y="400" font-family="Arial" font-size="16" fill="#166534">OK Cyber Insurance Certificate</text>
<text x="850" y="400" font-family="Arial" font-size="16" fill="#991b1b">MISSING MSA</text>
<text x="80" y="442" font-family="Arial" font-size="16" fill="#991b1b">Unsupported claim: SOC 2 compliant - no SOC 2 report found</text>
<text x="80" y="475" font-family="Arial" font-size="15" fill="#4b5563">Proof: live Gemini BA receipt, hardening receipt, generated checker smoke test, review package materialization receipt.</text>
</svg>