<svg xmlns="http://www.w3.org/2000/svg" width="1200" height="500" viewBox="0 0 1200 500" role="img" aria-label="Node script to SEJ refactor flow">
<rect width="1200" height="500" fill="#f7f8fb"/>
<text x="50" y="58" font-family="Arial" font-size="30" font-weight="700" fill="#17202a">Node Script to SEJ Refactor Lab</text>
<text x="50" y="90" font-family="Arial" font-size="16" fill="#4b5563">Preserve behavior while moving authority</text>
<g font-family="Arial" font-size="14" font-weight="700" fill="#17202a">
<rect x="50" y="140" width="140" height="72" rx="8" fill="#fff" stroke="#cbd5e1"/><text x="77" y="174">Node Script</text>
<rect x="235" y="140" width="140" height="72" rx="8" fill="#fff" stroke="#cbd5e1"/><text x="270" y="174">Inventory</text>
<rect x="420" y="140" width="150" height="72" rx="8" fill="#fff" stroke="#cbd5e1"/><text x="454" y="174">Characterize</text>
<rect x="615" y="140" width="140" height="72" rx="8" fill="#fff" stroke="#cbd5e1"/><text x="664" y="174">SEJ</text>
<rect x="800" y="140" width="140" height="72" rx="8" fill="#fff" stroke="#cbd5e1"/><text x="833" y="174">Facade</text>
<rect x="985" y="140" width="150" height="72" rx="8" fill="#fff" stroke="#cbd5e1"/><text x="1028" y="174">Equivalence</text>
</g>
<g stroke="#64748b" stroke-width="3" marker-end="url(#arrow)"><defs><marker id="arrow" markerWidth="10" markerHeight="10" refX="8" refY="3" orient="auto"><path d="M0,0 L0,6 L9,3 z" fill="#64748b"/></marker></defs><line x1="190" y1="176" x2="233" y2="176"/><line x1="375" y1="176" x2="418" y2="176"/><line x1="570" y1="176" x2="613" y2="176"/><line x1="755" y1="176" x2="798" y2="176"/><line x1="940" y1="176" x2="983" y2="176"/></g>
<rect x="50" y="280" width="1085" height="145" rx="10" fill="#fff" stroke="#cbd5e1"/>
<text x="80" y="322" font-family="Arial" font-size="22" font-weight="700" fill="#92400e">Status: blocked for semantic runtime operations</text>
<text x="80" y="362" font-family="Arial" font-size="16" fill="#4b5563">Original behavior was characterized and the needed operations were added to the conveyor runtime surface.</text>
<text x="80" y="396" font-family="Arial" font-size="16" fill="#4b5563">Replacement waits until runtime-surface binding and before/after equivalence pass.</text>
</svg>